<svg viewBox="0 0 388 155.23" xmlns="http://www.w3.org/2000/svg" data-name="Layer 1" id="Layer_1">
  <defs>
    <style>
      .cls-1 {
        fill: none;
        stroke: #231f20;
        stroke-miterlimit: 22.93;
        stroke-width: .22px;
      }

      .cls-2 {
        fill: #231f20;
      }
    </style>
  </defs>
  <path d="M35.42,95.67c-.36,0-.48-.12-.72-.36-.12-.24-.12-.48-.12-.72,0-.48.12-.84.24-.96.12-.12.48-.12.96-.12.96,0,1.68-.24,2.16-.48.48-.36.73-.85.85-1.33.12-.6.24-1.2.24-2.04v-19.95c0-.84-.12-1.44-.24-2.04-.12-.48-.37-.96-.85-1.2-.48-.37-1.2-.61-2.16-.61h-.24c-.36,0-.6,0-.72-.12-.12-.12-.24-.48-.24-.96,0-.24,0-.48.12-.72.24-.24.36-.36.72-.36,2.16.12,4.21.12,5.89.12,2.04,0,4.09,0,6.25-.12.36,0,.6.12.72.36.12.24.24.48.24.72,0,.6-.12.84-.36.96-.12.12-.48.12-.84.12-.96,0-1.68.24-2.16.61-.48.24-.84.72-.96,1.2-.12.6-.12,1.2-.24,2.04v20.67c.12.72.24,1.2.24,1.68.12.36.48.73.96.97.48.36,1.32.48,2.4.48h4.45c1.2,0,2.04-.24,2.65-.6.6-.36,1.08-.85,1.44-1.57.36-.84.72-1.92,1.32-3.6.24-.61.72-.85,1.68-.73.24,0,.61.12.85.37.24.24.36.48.36.72l-.97,6.37c-.12.36-.36.72-.48.84-.24.12-.6.24-.96.24h-16.46c-1.8,0-3.85,0-6.01.12Z" class="cls-2"></path>
  <path d="M35.42,95.67c-.36,0-.48-.12-.72-.36-.12-.24-.12-.48-.12-.72,0-.48.12-.84.24-.96.12-.12.48-.12.96-.12.96,0,1.68-.24,2.16-.48.48-.36.73-.85.85-1.33.12-.6.24-1.2.24-2.04v-19.95c0-.84-.12-1.44-.24-2.04-.12-.48-.37-.96-.85-1.2-.48-.37-1.2-.61-2.16-.61h-.24c-.36,0-.6,0-.72-.12-.12-.12-.24-.48-.24-.96,0-.24,0-.48.12-.72.24-.24.36-.36.72-.36,2.16.12,4.21.12,5.89.12,2.04,0,4.09,0,6.25-.12.36,0,.6.12.72.36.12.24.24.48.24.72,0,.6-.12.84-.36.96-.12.12-.48.12-.84.12-.96,0-1.68.24-2.16.61-.48.24-.84.72-.96,1.2-.12.6-.12,1.2-.24,2.04v20.67c.12.72.24,1.2.24,1.68.12.36.48.73.96.97.48.36,1.32.48,2.4.48h4.45c1.2,0,2.04-.24,2.65-.6.6-.36,1.08-.85,1.44-1.57.36-.84.72-1.92,1.32-3.6.24-.61.72-.85,1.68-.73.24,0,.61.12.85.37.24.24.36.48.36.72l-.97,6.37c-.12.36-.36.72-.48.84-.24.12-.6.24-.96.24h-16.46c-1.8,0-3.85,0-6.01.12Z" class="cls-1"></path>
  <path d="M72.19,96.15c-2.29,0-4.09-.72-5.41-2.04-1.32-1.44-2.05-3.25-2.05-5.41v-11.18c-.12-.48-.24-.85-.6-1.09-.48-.36-1.08-.48-1.92-.48-.36,0-.72,0-.84-.12-.24-.12-.36-.48-.36-.84,0-.24.12-.48.24-.6.12-.24.36-.36.6-.36,2.04-.24,3.85-.72,5.41-1.32.48-.12.84-.24,1.08-.24h.24c.48,0,.72.24.72.96v15.14c0,1.56.48,2.76,1.45,3.6.96.73,2.16,1.21,3.36,1.21,1.57,0,3.01-.36,4.09-1.21,1.08-.72,1.8-1.56,2.16-2.28v-10.58c0-.84,0-1.44-.12-1.8,0-.48-.24-.85-.6-1.09-.36-.36-.96-.48-1.8-.48-.36,0-.72,0-.96-.12-.12-.12-.24-.48-.24-.84,0-.24,0-.48.12-.6.24-.24.36-.36.6-.36,2.16-.24,3.97-.72,5.41-1.32.48-.12.96-.24,1.2-.24h.12c.6,0,.84.24.84.96v17.3c0,1.93,1.33,3.01,3.97,3.01.6,0,.84.24.84.84,0,.48-.24.84-.84.96l-8.05.48c-.25,0-.37,0-.37-.24-.12-.12-.12-.36-.12-.72v-2.77h-.12c-.96.85-1.68,1.57-2.28,2.05-.6.48-1.44.84-2.4,1.2-.97.36-2.05.6-3.37.6Z" class="cls-2"></path>
  <path d="M72.19,96.15c-2.29,0-4.09-.72-5.41-2.04-1.32-1.44-2.05-3.25-2.05-5.41v-11.18c-.12-.48-.24-.85-.6-1.09-.48-.36-1.08-.48-1.92-.48-.36,0-.72,0-.84-.12-.24-.12-.36-.48-.36-.84,0-.24.12-.48.24-.6.12-.24.36-.36.6-.36,2.04-.24,3.85-.72,5.41-1.32.48-.12.84-.24,1.08-.24h.24c.48,0,.72.24.72.96v15.14c0,1.56.48,2.76,1.45,3.6.96.73,2.16,1.21,3.36,1.21,1.57,0,3.01-.36,4.09-1.21,1.08-.72,1.8-1.56,2.16-2.28v-10.58c0-.84,0-1.44-.12-1.8,0-.48-.24-.85-.6-1.09-.36-.36-.96-.48-1.8-.48-.36,0-.72,0-.96-.12-.12-.12-.24-.48-.24-.84,0-.24,0-.48.12-.6.24-.24.36-.36.6-.36,2.16-.24,3.97-.72,5.41-1.32.48-.12.96-.24,1.2-.24h.12c.6,0,.84.24.84.96v17.3c0,1.93,1.33,3.01,3.97,3.01.6,0,.84.24.84.84,0,.48-.24.84-.84.96l-8.05.48c-.25,0-.37,0-.37-.24-.12-.12-.12-.36-.12-.72v-2.77h-.12c-.96.85-1.68,1.57-2.28,2.05-.6.48-1.44.84-2.4,1.2-.97.36-2.05.6-3.37.6Z" class="cls-1"></path>
  <path d="M102.23,96.15c-3.37,0-6.14-1.08-8.06-3.24-1.92-2.17-2.88-5.17-2.88-8.77,0-2.29.6-4.33,1.68-6.13,1.08-1.81,2.4-3.13,4.21-4.21,1.8-.96,3.72-1.56,5.89-1.56s3.97.36,5.53,1.2c1.56.72,2.28,2.04,2.28,3.97,0,1.08-.24,1.92-.84,2.76-.6.72-1.44,1.2-2.52,1.2-.61,0-1.21-.24-1.57-.6-.48-.24-.72-.6-.72-.84,0,0,.12-.12.48-.36.24-.36.48-.6.84-.96.24-.48.36-.84.36-1.44,0-.97-.36-1.81-1.2-2.29-.72-.6-1.68-.84-2.76-.84-2.53,0-4.21.96-5.17,2.89-.96,1.8-1.32,4.2-1.32,7.09s.6,5.05,1.8,6.85c1.32,1.81,3,2.77,5.05,2.77,1.44,0,2.76-.36,3.73-.96,1.08-.61,1.92-1.57,2.76-2.89.12-.12.24-.24.48-.24s.36.12.6.24c.12,0,.36.12.36.36.12.12.24.24.24.48,0,.12-.12.24-.24.36-1.08,1.57-2.4,2.77-4.08,3.73-1.57.96-3.25,1.44-4.93,1.44Z" class="cls-2"></path>
  <path d="M102.23,96.15c-3.37,0-6.14-1.08-8.06-3.24-1.92-2.17-2.88-5.17-2.88-8.77,0-2.29.6-4.33,1.68-6.13,1.08-1.81,2.4-3.13,4.21-4.21,1.8-.96,3.72-1.56,5.89-1.56s3.97.36,5.53,1.2c1.56.72,2.28,2.04,2.28,3.97,0,1.08-.24,1.92-.84,2.76-.6.72-1.44,1.2-2.52,1.2-.61,0-1.21-.24-1.57-.6-.48-.24-.72-.6-.72-.84,0,0,.12-.12.48-.36.24-.36.48-.6.84-.96.24-.48.36-.84.36-1.44,0-.97-.36-1.81-1.2-2.29-.72-.6-1.68-.84-2.76-.84-2.53,0-4.21.96-5.17,2.89-.96,1.8-1.32,4.2-1.32,7.09s.6,5.05,1.8,6.85c1.32,1.81,3,2.77,5.05,2.77,1.44,0,2.76-.36,3.73-.96,1.08-.61,1.92-1.57,2.76-2.89.12-.12.24-.24.48-.24s.36.12.6.24c.12,0,.36.12.36.36.12.12.24.24.24.48,0,.12-.12.24-.24.36-1.08,1.57-2.4,2.77-4.08,3.73-1.57.96-3.25,1.44-4.93,1.44Z" class="cls-1"></path>
  <path d="M127.58,81.6c1.69,0,2.53-.72,2.65-2.16,0-1.56-.36-2.77-1.2-3.85-.84-1.08-2.05-1.68-3.61-1.68-1.68,0-3.13.72-4.21,2.04-1.08,1.33-1.68,3.25-1.8,5.65h8.17ZM126.02,96.15c-2.52,0-4.69-.6-6.37-1.68-1.8-1.08-3.13-2.53-3.97-4.33-.96-1.8-1.44-3.85-1.44-6.13,0-1.92.48-3.85,1.44-5.65.84-1.81,2.17-3.37,3.97-4.45,1.68-1.2,3.61-1.68,5.77-1.68,3.01,0,5.29.72,6.85,2.28,1.69,1.44,2.53,3.49,2.77,6.13,0,1.08-.24,1.81-.84,2.29-.6.36-1.45.6-2.65.6h-12.14c0,3,.6,5.53,1.92,7.33,1.32,1.81,3.25,2.77,6.01,2.77,1.45,0,2.65-.36,3.61-.96,1.08-.61,1.92-1.69,2.89-3.13.12-.12.36-.24.48-.24.24,0,.48,0,.6.24.36.12.48.48.48.84,0,.24,0,.36-.12.48-.96,1.69-2.29,2.89-3.85,3.85-1.56.96-3.36,1.44-5.41,1.44Z" class="cls-2"></path>
  <path d="M127.58,81.6c1.69,0,2.53-.72,2.65-2.16,0-1.56-.36-2.77-1.2-3.85-.84-1.08-2.05-1.68-3.61-1.68-1.68,0-3.13.72-4.21,2.04-1.08,1.33-1.68,3.25-1.8,5.65h8.17ZM126.02,96.15c-2.52,0-4.69-.6-6.37-1.68-1.8-1.08-3.13-2.53-3.97-4.33-.96-1.8-1.44-3.85-1.44-6.13,0-1.92.48-3.85,1.44-5.65.84-1.81,2.17-3.37,3.97-4.45,1.68-1.2,3.61-1.68,5.77-1.68,3.01,0,5.29.72,6.85,2.28,1.69,1.44,2.53,3.49,2.77,6.13,0,1.08-.24,1.81-.84,2.29-.6.36-1.45.6-2.65.6h-12.14c0,3,.6,5.53,1.92,7.33,1.32,1.81,3.25,2.77,6.01,2.77,1.45,0,2.65-.36,3.61-.96,1.08-.61,1.92-1.69,2.89-3.13.12-.12.36-.24.48-.24.24,0,.48,0,.6.24.36.12.48.48.48.84,0,.24,0,.36-.12.48-.96,1.69-2.29,2.89-3.85,3.85-1.56.96-3.36,1.44-5.41,1.44Z" class="cls-1"></path>
  <path d="M167.82,96.51c-2.77,0-5.41-.48-7.82-1.44-2.28-.96-4.2-2.52-5.77-4.45-1.44-1.92-2.16-4.45-2.16-7.45,0-2.53.72-4.57,2.16-6.49,1.45-1.8,3.49-2.88,6.13-3.36v-.12c-2.16-1.56-3.12-3.49-3.12-5.89,0-2.17.72-3.97,2.4-5.29,1.57-1.33,3.73-2.05,6.61-2.05,1.92,0,3.6.48,5.04,1.33,1.33.96,2.05,2.28,2.05,3.96,0,1.09-.36,1.93-.96,2.77-.6.72-1.45,1.08-2.53,1.08-.6,0-1.08-.12-1.56-.48-.48-.36-.72-.6-.72-.84,0,0,.24-.12.48-.48.36-.24.6-.6.84-.96.24-.37.36-.85.36-1.33,0-.96-.36-1.68-1.08-2.28-.6-.6-1.44-.96-2.53-.96-1.56,0-2.88.48-3.72,1.44-.84,1.08-1.33,2.16-1.33,3.73,0,2.4.97,4.2,3.01,5.29h1.68c.6,0,.84,0,1.09.12.24.12.24.48.36,1.08,0,.36-.12.6-.24.84-.24.24-.49.36-.73.36h-1.8c-2.16.12-3.73.96-4.93,2.53-1.08,1.44-1.68,3.24-1.68,5.17,0,2.16.48,4.08,1.56,5.65.96,1.56,2.41,2.88,4.21,3.72,1.68.85,3.73,1.33,6.01,1.33,2.41,0,4.69-.48,6.73-1.57,2.05-.96,3.73-2.4,4.93-4.2,1.21-1.81,1.69-3.85,1.69-6.01,0-1.92-.48-3.6-1.57-5.05-1.08-1.44-2.52-2.16-4.33-2.16-1.08,0-1.92.24-2.88.84-.96.48-1.44,1.32-1.44,2.29,0,.48.24.96.48,1.44.24.36.72.6,1.32.72.84,0,1.56-.12,2.04-.6.61-.36.85-.6.97-.6s.36.24.6.6c.24.48.36.96.36,1.44,0,.96-.36,1.8-1.08,2.41-.61.48-1.45.84-2.53.84-1.2,0-2.28-.48-3-1.57-.73-.96-1.21-2.28-1.21-3.96,0-2.41.72-4.21,1.93-5.53,1.32-1.21,2.76-2.05,4.57-2.53,1.68-.48,3.96-.84,6.73-1.2,2.4-.24,4.21-.48,5.41-.84.72-.36,1.32-.72,1.8-1.2.48-.49.72-.97.72-1.57,0-1.08-.6-1.68-1.8-1.8-.96-.12-1.68.12-2.16.48-.49.48-.85.72-.97.72s-.36-.24-.6-.84c-.36-.48-.36-.96-.24-1.68.12-.85.48-1.57,1.2-2.05.61-.48,1.45-.72,2.29-.72.72,0,1.32.12,1.92.36.72.36,1.32.96,1.69,1.69.36.84.6,1.68.6,2.64,0,1.92-.6,3.49-1.81,4.81-1.08,1.32-2.64,2.4-4.57,3.13-1.92.72-4.08,1.08-6.49,1.08,2.89,2.4,4.33,5.29,4.33,8.41s-.72,5.77-2.16,8.06c-1.57,2.4-3.61,4.09-6.14,5.41-2.52,1.2-5.41,1.8-8.65,1.8Z" class="cls-2"></path>
  <path d="M167.82,96.51c-2.77,0-5.41-.48-7.82-1.44-2.28-.96-4.2-2.52-5.77-4.45-1.44-1.92-2.16-4.45-2.16-7.45,0-2.53.72-4.57,2.16-6.49,1.45-1.8,3.49-2.88,6.13-3.36v-.12c-2.16-1.56-3.12-3.49-3.12-5.89,0-2.17.72-3.97,2.4-5.29,1.57-1.33,3.73-2.05,6.61-2.05,1.92,0,3.6.48,5.04,1.33,1.33.96,2.05,2.28,2.05,3.96,0,1.09-.36,1.93-.96,2.77-.6.72-1.45,1.08-2.53,1.08-.6,0-1.08-.12-1.56-.48-.48-.36-.72-.6-.72-.84,0,0,.24-.12.48-.48.36-.24.6-.6.84-.96.24-.37.36-.85.36-1.33,0-.96-.36-1.68-1.08-2.28-.6-.6-1.44-.96-2.53-.96-1.56,0-2.88.48-3.72,1.44-.84,1.08-1.33,2.16-1.33,3.73,0,2.4.97,4.2,3.01,5.29h1.68c.6,0,.84,0,1.09.12.24.12.24.48.36,1.08,0,.36-.12.6-.24.84-.24.24-.49.36-.73.36h-1.8c-2.16.12-3.73.96-4.93,2.53-1.08,1.44-1.68,3.24-1.68,5.17,0,2.16.48,4.08,1.56,5.65.96,1.56,2.41,2.88,4.21,3.72,1.68.85,3.73,1.33,6.01,1.33,2.41,0,4.69-.48,6.73-1.57,2.05-.96,3.73-2.4,4.93-4.2,1.21-1.81,1.69-3.85,1.69-6.01,0-1.92-.48-3.6-1.57-5.05-1.08-1.44-2.52-2.16-4.33-2.16-1.08,0-1.92.24-2.88.84-.96.48-1.44,1.32-1.44,2.29,0,.48.24.96.48,1.44.24.36.72.6,1.32.72.84,0,1.56-.12,2.04-.6.61-.36.85-.6.97-.6s.36.24.6.6c.24.48.36.96.36,1.44,0,.96-.36,1.8-1.08,2.41-.61.48-1.45.84-2.53.84-1.2,0-2.28-.48-3-1.57-.73-.96-1.21-2.28-1.21-3.96,0-2.41.72-4.21,1.93-5.53,1.32-1.21,2.76-2.05,4.57-2.53,1.68-.48,3.96-.84,6.73-1.2,2.4-.24,4.21-.48,5.41-.84.72-.36,1.32-.72,1.8-1.2.48-.49.72-.97.72-1.57,0-1.08-.6-1.68-1.8-1.8-.96-.12-1.68.12-2.16.48-.49.48-.85.72-.97.72s-.36-.24-.6-.84c-.36-.48-.36-.96-.24-1.68.12-.85.48-1.57,1.2-2.05.61-.48,1.45-.72,2.29-.72.72,0,1.32.12,1.92.36.72.36,1.32.96,1.69,1.69.36.84.6,1.68.6,2.64,0,1.92-.6,3.49-1.81,4.81-1.08,1.32-2.64,2.4-4.57,3.13-1.92.72-4.08,1.08-6.49,1.08,2.89,2.4,4.33,5.29,4.33,8.41s-.72,5.77-2.16,8.06c-1.57,2.4-3.61,4.09-6.14,5.41-2.52,1.2-5.41,1.8-8.65,1.8Z" class="cls-1"></path>
  <path d="M219.67,93.94c2.29,0,4.21-.61,5.77-2.05,1.44-1.32,2.64-3.12,3.36-5.41.72-2.28,1.08-4.81,1.08-7.57s-.36-4.93-1.08-7.1c-.84-2.16-1.92-3.84-3.48-5.17-1.57-1.32-3.37-1.92-5.66-1.92-3.36,0-5.89,1.32-7.57,4.21-1.68,2.76-2.52,6.37-2.52,10.7,0,2.64.36,4.93,1.2,7.21.72,2.17,1.8,3.85,3.36,5.17,1.45,1.32,3.37,1.93,5.53,1.93ZM219.79,96.22c-3.24,0-6.01-.84-8.41-2.28-2.41-1.57-4.33-3.61-5.65-6.14-1.32-2.4-1.93-5.17-1.93-8.05,0-3.49.73-6.49,2.29-9.13,1.68-2.64,3.73-4.57,6.13-6.01,2.53-1.32,4.93-2.04,7.57-2.04,3.13,0,6.01.72,8.41,2.28,2.53,1.44,4.33,3.49,5.65,6.01,1.32,2.53,2.05,5.17,2.05,8.05,0,3.48-.85,6.49-2.41,9.13-1.56,2.65-3.73,4.69-6.13,6.01-2.53,1.44-5.05,2.16-7.57,2.16Z" class="cls-2"></path>
  <path d="M219.67,93.94c2.29,0,4.21-.61,5.77-2.05,1.44-1.32,2.64-3.12,3.36-5.41.72-2.28,1.08-4.81,1.08-7.57s-.36-4.93-1.08-7.1c-.84-2.16-1.92-3.84-3.48-5.17-1.57-1.32-3.37-1.92-5.66-1.92-3.36,0-5.89,1.32-7.57,4.21-1.68,2.76-2.52,6.37-2.52,10.7,0,2.64.36,4.93,1.2,7.21.72,2.17,1.8,3.85,3.36,5.17,1.45,1.32,3.37,1.93,5.53,1.93ZM219.79,96.22c-3.24,0-6.01-.84-8.41-2.28-2.41-1.57-4.33-3.61-5.65-6.14-1.32-2.4-1.93-5.17-1.93-8.05,0-3.49.73-6.49,2.29-9.13,1.68-2.64,3.73-4.57,6.13-6.01,2.53-1.32,4.93-2.04,7.57-2.04,3.13,0,6.01.72,8.41,2.28,2.53,1.44,4.33,3.49,5.65,6.01,1.32,2.53,2.05,5.17,2.05,8.05,0,3.48-.85,6.49-2.41,9.13-1.56,2.65-3.73,4.69-6.13,6.01-2.53,1.44-5.05,2.16-7.57,2.16Z" class="cls-1"></path>
  <path d="M239.98,95.26c-.24,0-.48,0-.6-.24-.12-.24-.24-.48-.24-.72,0-.36.12-.72.24-.72.12-.12.48-.12.84-.12.97,0,1.57-.25,1.93-.49.36-.36.6-.72.6-1.08.12-.36.12-.96.12-1.92v-13.34c-.12-.36-.36-.72-.72-1.08-.36-.24-.96-.48-1.81-.48-.36,0-.72,0-.96-.12-.12-.12-.24-.36-.24-.84,0-.24,0-.36.24-.6.12-.12.24-.24.6-.24,2.17-.36,3.97-.85,5.29-1.33.6-.24.97-.24,1.21-.36h.12c.48,0,.84.36.84.97v3.12h.12c.24-.12.72-.6,1.44-1.44.84-.72,1.8-1.32,2.77-1.81,1.08-.36,2.16-.6,3.48-.6,1.69,0,3.01.36,4.21,1.09,1.2.72,2.04,1.56,2.53,2.76h.12c1.32-1.2,2.52-2.16,3.72-2.76,1.2-.73,2.77-1.09,4.69-1.09,2.17,0,3.97.73,5.41,2.05,1.32,1.44,1.93,3.24,1.93,5.41v10.69c0,.84,0,1.56.12,1.92.12.36.24.72.72,1.08.36.24.96.49,1.8.49h.24c.36,0,.48,0,.6.12.24.12.24.36.36.72,0,.24-.12.48-.24.72-.24.24-.36.24-.6.24-1.92,0-3.73-.12-5.29-.12-1.44,0-3.25.12-5.17.12-.36,0-.48,0-.6-.24-.12-.24-.24-.48-.24-.72,0-.36.12-.72.24-.72.24-.12.48-.12.96-.12.84,0,1.44-.25,1.81-.49.36-.36.6-.72.6-1.08.12-.36.12-.96.12-1.92v-10.58c0-1.56-.48-2.77-1.45-3.61-.96-.72-2.04-1.2-3.36-1.2-1.45,0-2.77.36-3.73,1.08-.96.84-1.68,1.56-2.04,2.41v13.33c0,.6.12,1.2.48,1.44.36.36,1.08.61,1.92.61h.24c.36,0,.6,0,.72.12.12.12.12.36.12.72,0,.24,0,.48-.12.72-.12.24-.36.24-.6.24-2.04,0-3.73-.12-5.17-.12-1.32,0-3,.12-4.93.12-.36,0-.48,0-.6-.24-.12-.24-.24-.48-.24-.72,0-.36.12-.72.24-.72.12-.12.48-.12.96-.12,1.09,0,1.69-.25,2.05-.73.24-.48.36-.96.36-1.56v-11.78c0-1.56-.48-2.77-1.45-3.61-.96-.72-2.16-1.2-3.36-1.2-1.56,0-2.77.36-3.73,1.08-.96.84-1.68,1.56-2.16,2.41v11.89c0,.84,0,1.56.12,1.92.12.36.24.72.6,1.08.36.24,1.08.49,1.92.49h.24c.36,0,.48,0,.6.12.12.12.24.36.24.72,0,.24,0,.48-.12.72-.12.24-.36.24-.6.24-1.92,0-3.72-.12-5.29-.12s-3.24.12-5.17.12Z" class="cls-2"></path>
  <path d="M239.98,95.26c-.24,0-.48,0-.6-.24-.12-.24-.24-.48-.24-.72,0-.36.12-.72.24-.72.12-.12.48-.12.84-.12.97,0,1.57-.25,1.93-.49.36-.36.6-.72.6-1.08.12-.36.12-.96.12-1.92v-13.34c-.12-.36-.36-.72-.72-1.08-.36-.24-.96-.48-1.81-.48-.36,0-.72,0-.96-.12-.12-.12-.24-.36-.24-.84,0-.24,0-.36.24-.6.12-.12.24-.24.6-.24,2.17-.36,3.97-.85,5.29-1.33.6-.24.97-.24,1.21-.36h.12c.48,0,.84.36.84.97v3.12h.12c.24-.12.72-.6,1.44-1.44.84-.72,1.8-1.32,2.77-1.81,1.08-.36,2.16-.6,3.48-.6,1.69,0,3.01.36,4.21,1.09,1.2.72,2.04,1.56,2.53,2.76h.12c1.32-1.2,2.52-2.16,3.72-2.76,1.2-.73,2.77-1.09,4.69-1.09,2.17,0,3.97.73,5.41,2.05,1.32,1.44,1.93,3.24,1.93,5.41v10.69c0,.84,0,1.56.12,1.92.12.36.24.72.72,1.08.36.24.96.49,1.8.49h.24c.36,0,.48,0,.6.12.24.12.24.36.36.72,0,.24-.12.48-.24.72-.24.24-.36.24-.6.24-1.92,0-3.73-.12-5.29-.12-1.44,0-3.25.12-5.17.12-.36,0-.48,0-.6-.24-.12-.24-.24-.48-.24-.72,0-.36.12-.72.24-.72.24-.12.48-.12.96-.12.84,0,1.44-.25,1.81-.49.36-.36.6-.72.6-1.08.12-.36.12-.96.12-1.92v-10.58c0-1.56-.48-2.77-1.45-3.61-.96-.72-2.04-1.2-3.36-1.2-1.45,0-2.77.36-3.73,1.08-.96.84-1.68,1.56-2.04,2.41v13.33c0,.6.12,1.2.48,1.44.36.36,1.08.61,1.92.61h.24c.36,0,.6,0,.72.12.12.12.12.36.12.72,0,.24,0,.48-.12.72-.12.24-.36.24-.6.24-2.04,0-3.73-.12-5.17-.12-1.32,0-3,.12-4.93.12-.36,0-.48,0-.6-.24-.12-.24-.24-.48-.24-.72,0-.36.12-.72.24-.72.12-.12.48-.12.96-.12,1.09,0,1.69-.25,2.05-.73.24-.48.36-.96.36-1.56v-11.78c0-1.56-.48-2.77-1.45-3.61-.96-.72-2.16-1.2-3.36-1.2-1.56,0-2.77.36-3.73,1.08-.96.84-1.68,1.56-2.16,2.41v11.89c0,.84,0,1.56.12,1.92.12.36.24.72.6,1.08.36.24,1.08.49,1.92.49h.24c.36,0,.48,0,.6.12.12.12.24.36.24.72,0,.24,0,.48-.12.72-.12.24-.36.24-.6.24-1.92,0-3.72-.12-5.29-.12s-3.24.12-5.17.12Z" class="cls-1"></path>
  <path d="M295.62,94.06c2.04,0,3.73-.97,4.93-2.77,1.32-1.92,1.92-4.33,1.92-7.45,0-2.65-.6-4.81-1.8-6.74-1.2-1.8-3.01-2.76-5.41-2.76-2.05,0-3.85.84-5.29,2.28v13.22c.12.6.36,1.2.84,1.8.48.72,1.2,1.2,2.04,1.68.73.49,1.69.73,2.77.73ZM286.37,95.86c-.24,0-.48-.12-.72-.24-.12-.24-.24-.48-.24-.72v-31.25c-.12-.36-.36-.72-.72-.96-.36-.36-.96-.48-1.81-.48-.36,0-.72-.13-.96-.25-.12-.12-.24-.36-.24-.72,0-.24,0-.48.12-.6.24-.24.36-.36.72-.36,2.05-.24,3.85-.72,5.41-1.32.37-.12.85-.24,1.09-.24h.12c.6,0,.84.24.84.96v15.14h.12c.96-1.08,2.04-1.8,3.36-2.28,1.21-.49,2.41-.73,3.61-.73,1.93,0,3.73.48,5.41,1.57,1.57.96,2.77,2.4,3.73,4.2.96,1.69,1.32,3.73,1.32,6.01s-.48,4.32-1.56,6.13c-.96,1.92-2.41,3.36-4.21,4.45-1.8,1.08-3.61,1.56-5.65,1.56-3.01,0-5.53-.84-7.69-2.41h-.25c-.12.25-.36.61-.48,1.09-.12.48-.36.84-.6,1.08-.12.24-.36.36-.72.36Z" class="cls-2"></path>
  <path d="M295.62,94.06c2.04,0,3.73-.97,4.93-2.77,1.32-1.92,1.92-4.33,1.92-7.45,0-2.65-.6-4.81-1.8-6.74-1.2-1.8-3.01-2.76-5.41-2.76-2.05,0-3.85.84-5.29,2.28v13.22c.12.6.36,1.2.84,1.8.48.72,1.2,1.2,2.04,1.68.73.49,1.69.73,2.77.73ZM286.37,95.86c-.24,0-.48-.12-.72-.24-.12-.24-.24-.48-.24-.72v-31.25c-.12-.36-.36-.72-.72-.96-.36-.36-.96-.48-1.81-.48-.36,0-.72-.13-.96-.25-.12-.12-.24-.36-.24-.72,0-.24,0-.48.12-.6.24-.24.36-.36.72-.36,2.05-.24,3.85-.72,5.41-1.32.37-.12.85-.24,1.09-.24h.12c.6,0,.84.24.84.96v15.14h.12c.96-1.08,2.04-1.8,3.36-2.28,1.21-.49,2.41-.73,3.61-.73,1.93,0,3.73.48,5.41,1.57,1.57.96,2.77,2.4,3.73,4.2.96,1.69,1.32,3.73,1.32,6.01s-.48,4.32-1.56,6.13c-.96,1.92-2.41,3.36-4.21,4.45-1.8,1.08-3.61,1.56-5.65,1.56-3.01,0-5.53-.84-7.69-2.41h-.25c-.12.25-.36.61-.48,1.09-.12.48-.36.84-.6,1.08-.12.24-.36.36-.72.36Z" class="cls-1"></path>
  <path d="M311.24,95.26c-.24,0-.36,0-.6-.24-.12-.24-.12-.48-.12-.72,0-.36.12-.72.24-.72.12-.12.48-.12.96-.12.84,0,1.44-.25,1.8-.49.36-.36.6-.72.6-1.08.12-.36.12-.96.12-1.92v-11.41c0-.85,0-1.57-.12-1.93,0-.36-.24-.72-.6-1.08-.36-.24-.96-.48-1.8-.48-.48,0-.72,0-.96-.12-.24-.12-.24-.36-.24-.84,0-.24,0-.36.12-.6.12-.12.36-.24.6-.24,2.16-.36,3.97-.85,5.41-1.33.6-.24.96-.24,1.08-.36h.24c.48,0,.72.36.72.97v3.12h.24c1.09-1.2,2.29-2.04,3.49-2.76,1.2-.73,2.28-1.09,3.25-1.09,1.2,0,2.04.48,2.64,1.33.72.72.96,1.68.96,2.76,0,.96-.24,1.8-.84,2.53-.48.72-1.32,1.08-2.28,1.08-.48,0-.96-.12-1.21-.24-.36-.24-.6-.36-.6-.48s.12-.36.48-.72c.25-.37.49-.73.49-1.21,0-.6-.24-1.08-.49-1.44-.36-.36-.72-.6-1.32-.6s-1.32.36-2.16.84c-.84.6-1.69,1.32-2.53,2.17v12.13c0,.84,0,1.56.12,1.92,0,.36.24.72.6,1.08.37.24.97.49,1.93.49h.24c.24,0,.48,0,.6.12.12.12.24.36.24.72,0,.24,0,.48-.24.72-.12.24-.24.24-.6.24-1.92,0-3.61-.12-5.17-.12s-3.25.12-5.29.12Z" class="cls-2"></path>
  <path d="M311.24,95.26c-.24,0-.36,0-.6-.24-.12-.24-.12-.48-.12-.72,0-.36.12-.72.24-.72.12-.12.48-.12.96-.12.84,0,1.44-.25,1.8-.49.36-.36.6-.72.6-1.08.12-.36.12-.96.12-1.92v-11.41c0-.85,0-1.57-.12-1.93,0-.36-.24-.72-.6-1.08-.36-.24-.96-.48-1.8-.48-.48,0-.72,0-.96-.12-.24-.12-.24-.36-.24-.84,0-.24,0-.36.12-.6.12-.12.36-.24.6-.24,2.16-.36,3.97-.85,5.41-1.33.6-.24.96-.24,1.08-.36h.24c.48,0,.72.36.72.97v3.12h.24c1.09-1.2,2.29-2.04,3.49-2.76,1.2-.73,2.28-1.09,3.25-1.09,1.2,0,2.04.48,2.64,1.33.72.72.96,1.68.96,2.76,0,.96-.24,1.8-.84,2.53-.48.72-1.32,1.08-2.28,1.08-.48,0-.96-.12-1.21-.24-.36-.24-.6-.36-.6-.48s.12-.36.48-.72c.25-.37.49-.73.49-1.21,0-.6-.24-1.08-.49-1.44-.36-.36-.72-.6-1.32-.6s-1.32.36-2.16.84c-.84.6-1.69,1.32-2.53,2.17v12.13c0,.84,0,1.56.12,1.92,0,.36.24.72.6,1.08.37.24.97.49,1.93.49h.24c.24,0,.48,0,.6.12.12.12.24.36.24.72,0,.24,0,.48-.24.72-.12.24-.24.24-.6.24-1.92,0-3.61-.12-5.17-.12s-3.25.12-5.29.12Z" class="cls-1"></path>
  <path d="M339.36,93.09c1.08,0,2.17-.36,3.13-.84.96-.6,1.68-1.44,2.28-2.4.6-.96.84-2.05.84-3.25v-2.88c-3.48.24-5.89.84-7.33,1.68-1.44.96-2.16,2.28-2.16,4.21,0,2.28,1.08,3.48,3.24,3.48ZM337.68,95.74c-1.92,0-3.61-.48-4.81-1.68-1.2-1.09-1.8-2.53-1.8-4.21,0-2.17.6-3.73,2.04-4.81,1.44-1.08,3.13-1.68,5.05-2.04,1.92-.37,4.45-.61,7.45-.73v-3.96c0-1.69-.36-2.89-1.2-3.73s-2.16-1.32-3.97-1.32c-.96,0-1.92.36-2.64.96-.72.72-1.2,1.56-1.2,2.64,0,.48.12.97.36,1.33.24.24.6.6.84.84.24.24.48.36.48.36,0,.24-.24.48-.72.84-.36.24-.84.48-1.44.48-1.09,0-1.81-.36-2.41-1.08-.6-.84-.84-1.68-.84-2.65,0-1.8.72-3,2.28-3.84,1.57-.85,3.49-1.33,5.65-1.33,2.76,0,4.92.6,6.73,1.57,1.68,1.08,2.52,3,2.52,5.77v11.66c0,.72.24,1.44.6,2.04.48.61,1.09.97,2.05.97.24,0,.36,0,.6.12,0,.12.12.36.12.72s-.36.6-.96.84c-.6.12-1.21.24-1.81.24-1.32,0-2.4-.36-3.36-1.08-.96-.72-1.45-1.69-1.69-3.01-.72,1.32-1.68,2.41-3.24,3.01-1.44.72-3.01,1.08-4.69,1.08Z" class="cls-2"></path>
  <path d="M339.36,93.09c1.08,0,2.17-.36,3.13-.84.96-.6,1.68-1.44,2.28-2.4.6-.96.84-2.05.84-3.25v-2.88c-3.48.24-5.89.84-7.33,1.68-1.44.96-2.16,2.28-2.16,4.21,0,2.28,1.08,3.48,3.24,3.48ZM337.68,95.74c-1.92,0-3.61-.48-4.81-1.68-1.2-1.09-1.8-2.53-1.8-4.21,0-2.17.6-3.73,2.04-4.81,1.44-1.08,3.13-1.68,5.05-2.04,1.92-.37,4.45-.61,7.45-.73v-3.96c0-1.69-.36-2.89-1.2-3.73s-2.16-1.32-3.97-1.32c-.96,0-1.92.36-2.64.96-.72.72-1.2,1.56-1.2,2.64,0,.48.12.97.36,1.33.24.24.6.6.84.84.24.24.48.36.48.36,0,.24-.24.48-.72.84-.36.24-.84.48-1.44.48-1.09,0-1.81-.36-2.41-1.08-.6-.84-.84-1.68-.84-2.65,0-1.8.72-3,2.28-3.84,1.57-.85,3.49-1.33,5.65-1.33,2.76,0,4.92.6,6.73,1.57,1.68,1.08,2.52,3,2.52,5.77v11.66c0,.72.24,1.44.6,2.04.48.61,1.09.97,2.05.97.24,0,.36,0,.6.12,0,.12.12.36.12.72s-.36.6-.96.84c-.6.12-1.21.24-1.81.24-1.32,0-2.4-.36-3.36-1.08-.96-.72-1.45-1.69-1.69-3.01-.72,1.32-1.68,2.41-3.24,3.01-1.44.72-3.01,1.08-4.69,1.08Z" class="cls-1"></path>
</svg>