<?xml version="1.0" encoding="UTF-8"?>
<svg id="Layer_1" data-name="Layer 1" xmlns="http://www.w3.org/2000/svg" viewBox="0 0 100 100">
  <path d="M9.37,65.39c0,2.71,2.22,4.68,4.88,4.64h38.35c1.01,0,1.65.71,1.65,1.56s-.64,1.57-1.65,1.57H14.06c-4.43-.02-7.83-3.55-7.82-7.95l.02-41.17c0-4.32,3.51-7.73,7.8-7.73h62.53c4.43,0,7.84,3.52,7.84,7.91v17.96c-.01.97-.87,1.53-1.66,1.49-.86-.05-1.46-.73-1.46-1.68l-.03-6.85H9.37s0,30.24,0,30.24ZM81.25,26.45c.12-1.07.06-1.51.05-2.27,0-2.43-1.89-4.72-4.52-4.72H14.06c-2.65-.01-4.64,2.06-4.69,4.6-.02.84-.13,1.64.11,2.4h71.76ZM81.24,32.01c.07-1.01.21-1.71-.09-2.44H9.4c-.09.92-.1,1.64.02,2.44h71.81Z"/>
  <path d="M74.85,83.54c-.46.22-1.04.16-1.48-.06l-6.31-3.07c-10.53-5.13-14.29-18.56-11.36-29.5.24-.51.52-.86,1.07-1.03l17.45-5.59,17.36,5.59c.54.18.81.54,1.05,1.04,2.95,10.69-.87,24.36-11.09,29.35l-6.69,3.27ZM74.17,80.39l4.73-2.28c4.95-2.3,8.54-6.47,10.29-11.67,1.5-4.49,1.59-9.16.61-13.84l-15.58-5.03-15.68,5.03c-.94,4.45-.9,8.92.42,13.25,1.56,5.12,4.88,9.32,9.58,11.81l5.64,2.72Z"/>
  <path d="M28.56,63.01h-10.82c-.96,0-1.62-.53-1.72-1.4s.52-1.72,1.54-1.72h11.08c.92,0,1.53.77,1.52,1.54-.01.85-.56,1.58-1.6,1.59Z"/>
  <path d="M72.36,69.36l-4.71-4.69c-.64-.63-.62-1.58-.09-2.17.59-.67,1.62-.72,2.29-.06l3.62,3.56,8.24-7.33c.66-.59,1.63-.43,2.15.15.56.61.57,1.61-.14,2.24l-9.24,8.25c-.58.52-1.5.67-2.13.04Z"/>
</svg>