<?xml version="1.0" encoding="UTF-8"?>
<svg id="Layer_1" data-name="Layer 1" xmlns="http://www.w3.org/2000/svg" viewBox="0 0 100 100">
  <path d="M94.64,37.12c0-.91-.36-1.73-1.07-2.43-2.62-2.6-9.79-3.19-17.78-3.26,9.21-7.17,8.11-13.1,8.06-13.37-.1-.48-.57-.8-1.06-.69-.49.1-.8.57-.71,1.06.01.06.96,5.93-9.35,13-.86,0-1.72.01-2.58.02-.27,0-.52,0-.78,0,7.51-8.84,10.63-16.92,9.5-24.67-.06-.4-.37-.71-.77-.77-8.08-1.11-16.3,1.1-24.43,6.56-1.27-.26-5.11-.77-7.62,1.63-1.87,1.79-2.5,4.73-1.9,8.73-6.4-2.65-9.24.76-10.22,2.49-1.29,2.57-1.53,4.98-.69,7.17,1.08,2.82,3.74,4.69,5.97,5.82-4.12,1.96-7.97,4.52-11.34,7.6-11.92,10.87-22.15,20.56-22.25,20.65-.36.34-.38.91-.03,1.28.18.19.42.28.66.28.22,0,.45-.08.62-.25.1-.1,10.32-9.78,22.22-20.63,4.91-4.47,10.84-7.84,17.15-9.74,9.95-2.99,16.46-4.33,21.12-4.35,0,0,0,0,.01,0,0,0,0,0,.01,0,.03,0,.06,0,.09,0,.77,0,1.69-.01,2.7-.02.85,0,1.8-.02,2.81-.02.01,0,.02,0,.04,0,0,0,.02,0,.03,0,6.9-.03,16.67.19,19.25,2.74.36.36.53.72.53,1.14,0,2.86-8.75,5.16-26,6.84-.78.08-1.46.14-2,.2-.25.03-.46.15-.61.33-6.63-1.44-14-2.62-14.09-2.63-.5-.08-.96.26-1.03.75-.08.49.26.96.75,1.03.11.02,10.85,1.74,18,3.55,3.12.79,5.91,2.48,8.05,4.87,4,4.47,8.88,10.38,12.26,14.55.48.59.68,1.32.57,2.07-.11.75-.51,1.4-1.14,1.83-1.09.76-2.6.59-3.51-.4l-7.59-8.29c-3.81-4.16-8.95-7.05-14.48-8.15l-11.15-2.2c-.48-.09-.96.22-1.06.71-.1.49.22.96.71,1.06l11.15,2.2c5.08,1,9.8,3.64,13.33,7.42,3.4,5.13,6.31,12.06,5.33,15.46-.21.74-.6,1.23-1.19,1.49-1.58.71-2.84.82-3.77.34-1.07-.56-1.81-1.98-2.24-4.33-.29-.87-.43-1.56-.56-2.23-.36-1.79-.67-3.34-3.34-6.81-5.24-6.84-18.73-6.02-19.3-5.98-.5.03-.87.46-.84.96.03.5.45.88.96.84.13,0,13.09-.79,17.75,5.28,2.41,3.13,2.67,4.43,3,6.06.14.69.3,1.47.59,2.32.13.74.3,1.41.51,2.01,0,.02-.02.03-.03.05-1.67,5.01-4.78,6.59-6.35,6.07-1.17-.38-1.52-1.89-.93-3.75,1.44-3.2,1.51-5.77.21-7.63-2.24-3.21-7.65-2.88-7.81-2.86-.44-.02-11.82-.01-20.32,11.12-7.94,10.38-16.31,11.17-16.39,11.18-.5.04-.87.47-.83.97.04.47.43.83.9.83.02,0,.04,0,.07,0,.37-.03,9.22-.81,17.69-11.88,7.93-10.38,18.76-10.41,18.94-10.41,1.28-.08,4.9.12,6.28,2.09.91,1.31.78,3.28-.41,5.96-1.08,3.41.25,5.52,2.06,6.11,2.48.81,5.93-.99,8.01-5.71.44.59.96,1.04,1.56,1.35.64.34,1.35.51,2.13.51.97,0,2.05-.27,3.23-.8,1.07-.48,1.83-1.4,2.18-2.64.74-2.58-.26-6.52-1.97-10.41l2.66,2.91c.88.96,2.1,1.46,3.32,1.46.88,0,1.77-.26,2.54-.79,1.03-.71,1.72-1.83,1.9-3.06.18-1.23-.17-2.5-.96-3.47-3.4-4.19-8.3-10.12-12.32-14.62-2.27-2.54-5.2-4.35-8.47-5.28,13.65-1.39,25.86-3.45,25.86-8.46ZM47.31,15.53c2.23-2.15,6.28-1.11,6.33-1.1.25.07.52.02.74-.13,7.74-5.29,15.2-7.44,22.81-6.57.81,7.35-2.55,15.14-10.23,23.77-2.65.05-5.85.5-9.84,1.38-4.05-4.18-7.73-7.18-10.94-8.94-.84-4.04-.46-6.88,1.12-8.4ZM45.74,35.91c-1.46.44-2.9.96-4.31,1.55-2.07-.85-5.38-2.6-6.48-5.48-.65-1.7-.44-3.62.59-5.68,1.67-2.96,5.02-3.3,9.42-.98,2.93,1.53,6.33,4.24,10.1,8.03-2.75.67-5.82,1.51-9.33,2.56Z"/>
</svg>