<?xml version="1.0" encoding="UTF-8"?>
<svg id="Layer_1" data-name="Layer 1" xmlns="http://www.w3.org/2000/svg" viewBox="0 0 100 100">
  <path d="M50.9,77.49c-.63.36-1.22.4-1.77.09l-23.46-13.52c-.54-.31-.81-.88-.81-1.5v-26.28c0-.66.31-1.13.86-1.45l23.35-13.46c.66-.38,1.26-.45,1.95-.06l23.22,13.36c.61.35.91.86.91,1.6v26.08c0,.72-.25,1.29-.87,1.65l-23.37,13.49ZM70.38,36.09l-20.31-11.7-7.69,4.49,20.32,11.72,7.69-4.52ZM59.46,42.37l-20.27-11.69-9.55,5.55,20.31,11.72,9.51-5.58ZM60.9,45.25l-9.42,5.41.07,22.83,20.47-11.78-.04-22.82-7.72,4.42-.06,6.21c0,.87-.87,1.42-1.57,1.39-2.56-.09-.99-3.9-1.73-5.65ZM48.31,73.46l.05-22.8-20.33-11.67-.04,22.83,20.32,11.64Z"/>
  <path d="M16.42,82.16c-.06-1.06.57-1.79,1.53-1.84l6.86-.38c.95-.05,1.63.62,1.69,1.45.16,2.48-3.45,1.36-4.55,1.99,9.2,7.73,20.86,11.15,32.58,9.95,10.78-1.1,20.55-6.13,27.79-14.02,13.57-14.78,15.21-37.12,3.96-53.75-.46-.69.09-1.75.73-2.05.74-.35,1.56-.12,2.03.59,11.39,17.04,10.2,39.79-2.87,55.55-16.59,20.01-46.14,22.88-66.23,6.17-.53,1.27.89,4.43-1.5,4.57-.81.04-1.59-.53-1.64-1.47l-.39-6.75Z"/>
  <path d="M74.87,16.77c1.11-.18,2.21.08,3.19-.34-9.45-7.93-21.48-11.33-33.5-9.84-10.45,1.3-19.85,6.26-26.88,13.92-13.53,14.74-15.21,37.02-4.03,53.63.46.68.14,1.69-.56,2.11-.62.37-1.59.27-2.06-.42C-.54,58.65.75,35.64,14.09,19.84,30.74.13,60.07-2.6,80.05,13.99c.53-1.29-.92-4.42,1.5-4.57.8-.05,1.58.54,1.64,1.47l.4,6.85c.05.92-.59,1.69-1.51,1.74l-6.88.37c-.88.05-1.55-.54-1.67-1.27-.14-.84.34-1.66,1.34-1.83Z"/>
</svg>