<?xml version="1.0" encoding="UTF-8"?>
<svg id="Layer_1" data-name="Layer 1" xmlns="http://www.w3.org/2000/svg" viewBox="0 0 100 100">
  <path d="M96.29,40.55c-3.26-4.11-8.14-6.47-13.38-6.47h-11.27l3.06-12.38c.05-.22,0-.46-.14-.64-.14-.18-.36-.29-.59-.29H19.02c-.41,0-.74.33-.74.74s.33.74.74.74h54.01l-11.14,45h-13.11c-1.07-4.11-4.8-7.16-9.25-7.16s-8.18,3.05-9.25,7.16h-11.26c-.41,0-.74.33-.74.74s.33.74.74.74h10.99c-.03.3-.05.6-.05.91,0,5.27,4.29,9.56,9.56,9.56s9.56-4.29,9.56-9.56c0-.31-.02-.61-.05-.91h23.45c-.03.3-.05.6-.05.91,0,5.27,4.29,9.56,9.56,9.56s9.56-4.29,9.56-9.56c0-.31-.02-.61-.05-.91h4.22c.35,0,.65-.24.72-.57l3.07-13.12c1.19-5.11,0-10.39-3.26-14.5ZM39.53,77.74c-4.45,0-8.07-3.62-8.07-8.07s3.62-8.07,8.07-8.07,8.07,3.62,8.07,8.07-3.62,8.07-8.07,8.07ZM82.01,77.74c-4.45,0-8.07-3.62-8.07-8.07s3.62-8.07,8.07-8.07,8.07,3.62,8.07,8.07-3.62,8.07-8.07,8.07ZM98.1,54.71l-2.93,12.55h-3.9c-1.07-4.11-4.8-7.16-9.25-7.16s-8.18,3.05-9.25,7.16h-9.35l7.84-31.69h11.64c4.79,0,9.24,2.15,12.22,5.9,2.98,3.75,4.06,8.58,2.97,13.24Z"/>
  <path d="M10.98,31.04h18.71c.41,0,.74-.33.74-.74s-.33-.74-.74-.74H10.98c-.41,0-.74.33-.74.74s.33.74.74.74Z"/>
  <path d="M6.3,43.61h23.39c.41,0,.74-.33.74-.74s-.33-.74-.74-.74H6.3c-.41,0-.74.33-.74.74s.33.74.74.74Z"/>
  <path d="M30.43,54.56c0-.41-.33-.74-.74-.74H.74c-.41,0-.74.33-.74.74s.33.74.74.74h28.94c.41,0,.74-.33.74-.74Z"/>
</svg>